# xmcd CD database file
#
# Track frame offsets:
#	150
#	15562
#	30270
#	44345
#	58582
#	71737
#	88045
#	101952
#	113987
#	126542
#	144895
#	155650
#	167097
#	178352
#	195700
#	215584
#	232595
#	245270
#	254397
#	270042
#	282185
#
# Disc length: 3931 seconds
#
# Revision: 0
# Processed by: cddbd v1.5.2PL0 Copyright (c) Steve Scherf et al.
# Submitted via: jetAudio 7
#
DISCID=290f5915
DTITLE=Joe Dolan - In Love With You
DYEAR=1900
DGENRE=Misc
TTITLE0=Bonjour Mademoiselle
TTITLE1=Be My Fire
TTITLE2=Be Home In About A Day Or So
TTITLE3=Caterina Ballerina
TTITLE4=Crazy Woman
TTITLE5=Don't Ever Change Your Mind
TTITLE6=Here We Go Again
TTITLE7=Home Isn't Home Anymore
TTITLE8=I Feel Your Power Come Over Me
TTITLE9=I Know It's Over
TTITLE10=I Only Dream
TTITLE11=I'll Always Love You
TTITLE12=I'll Sit On Your Doorstep
TTITLE13=Alone
TTITLE14=False Promises
TTITLE15=Games People Play
TTITLE16=Aching Breaking Heart
TTITLE17=Does It Always Have To Be This Way
TTITLE18=Falling In Love
TTITLE19=My Darling Michelle
TTITLE20=Pretty Brown Eyes
EXTD=
EXTT0=
EXTT1=
EXTT2=
EXTT3=
EXTT4=
EXTT5=
EXTT6=
EXTT7=
EXTT8=
EXTT9=
EXTT10=
EXTT11=
EXTT12=
EXTT13=
EXTT14=
EXTT15=
EXTT16=
EXTT17=
EXTT18=
EXTT19=
EXTT20=
PLAYORDER=
